# xmcd
#
# Track frame offsets:
#	150
#	7867
#	24612
#	40296
#	56685
#	77548
#	95136
#	115388
#	137222
#	156029
#	179395
#	204356
#	223049
#	235661
#	257708
#	270982
#	288031
#	305634
#
# Disc length: 4119 seconds
#
# Revision: 1
# Processed by: cddbd v1.4PL0 Copyright (c) Steve Scherf et al.
# Submitted via: audiograbber 1.80
#
DISCID=f4101512
DTITLE=Die Firma - Das Dritte Auge
DYEAR=1900
DGENRE=
TTITLE0=Intro
TTITLE1=Die Drahtzieher
TTITLE2=Hör Ma!
TTITLE3=Unterwegs
TTITLE4=Kein Ende in Sicht
TTITLE5=Bei Nacht
TTITLE6=Strassenfest
TTITLE7=Bewegliche Ziele - Teil II
TTITLE8=Mosaik
TTITLE9=Wir Sind ...
TTITLE10=Die Dunkle Seite Des Mondes
TTITLE11=Kopf Hoch
TTITLE12=La Honda
TTITLE13=Feindliche Übernahme
TTITLE14=Abschiedsbrief
TTITLE15=Lauta
TTITLE16=Hektik
TTITLE17=Outro
EXTD=
EXTT0=
EXTT1=
EXTT2=
EXTT3=
EXTT4=
EXTT5=
EXTT6=
EXTT7=
EXTT8=
EXTT9=
EXTT10=
EXTT11=
EXTT12=
EXTT13=
EXTT14=
EXTT15=
EXTT16=
EXTT17=
PLAYORDER=
